<?xml version="1.0" encoding="UTF-8" standalone="no"?>
<!-- Created with Inkscape (http://www.inkscape.org/) -->

<svg
   version="1.1"
   id="svg1"
   width="1078.3167"
   height="189.12366"
   viewBox="0 0 1078.3167 189.12366"
   sodipodi:docname="RitualLogo1.svg"
   inkscape:version="1.4.2 (f4327f4, 2025-05-13)"
   xmlns:inkscape="http://www.inkscape.org/namespaces/inkscape"
   xmlns:sodipodi="http://sodipodi.sourceforge.net/DTD/sodipodi-0.dtd"
   xmlns="http://www.w3.org/2000/svg"
   xmlns:svg="http://www.w3.org/2000/svg">
  <defs
     id="defs1" />
  <sodipodi:namedview
     id="namedview1"
     pagecolor="#ffffff"
     bordercolor="#000000"
     borderopacity="0.25"
     inkscape:showpageshadow="2"
     inkscape:pageopacity="0.0"
     inkscape:pagecheckerboard="0"
     inkscape:deskcolor="#d1d1d1"
     inkscape:zoom="0.3284817"
     inkscape:cx="-243.54477"
     inkscape:cy="98.940064"
     inkscape:window-width="1920"
     inkscape:window-height="991"
     inkscape:window-x="-9"
     inkscape:window-y="1341"
     inkscape:window-maximized="1"
     inkscape:current-layer="g1" />
  <g
     inkscape:groupmode="layer"
     inkscape:label="Image"
     id="g1"
     transform="translate(-86.100907,-289.28942)">
    <path
       style="fill:#ff0000;stroke-width:1.51237;fill-opacity:1"
       d="m 765.4332,477.1288 c -1.55041,-0.98317 -0.42739,-4.72781 5.09564,-16.99096 3.8964,-8.65143 11.69467,-26.27862 17.32949,-39.17155 5.63483,-12.89292 12.30077,-27.86534 14.81317,-33.27205 2.51241,-5.40671 8.65891,-19.01801 13.65889,-30.24733 4.99998,-11.22932 13.61835,-30.28513 19.15193,-42.34626 5.53358,-12.06112 10.42137,-22.78001 10.86175,-23.81976 0.59677,-1.409 7.48575,-1.89046 27.04957,-1.89046 h 26.24885 l 21.40868,42.72435 c 11.77477,23.49839 29.20383,57.93076 38.73123,76.5164 9.5274,18.58563 17.05611,34.0585 16.73045,34.38416 -0.32566,0.32566 -7.35101,1.95773 -15.6119,3.6268 -8.26089,1.66908 -16.55689,3.3949 -18.43552,3.83514 -3.14211,0.73632 -4.82127,-2.07931 -20.96279,-35.15031 -9.65087,-19.77291 -23.56239,-48.25928 -30.91446,-63.30304 -13.27612,-27.16555 -16.44249,-32.05002 -19.53676,-30.13765 -2.1088,1.30331 -7.72155,12.52354 -24.35626,48.68968 -17.14635,37.2785 -17.16058,37.2299 7.86247,26.86121 32.70776,-13.55296 31.94605,-13.31221 30.94253,-9.77996 -0.47842,1.68396 -1.20781,4.25275 -1.62085,5.7084 -0.41306,1.45565 -5.68743,6.00922 -11.72084,10.11905 -16.29776,11.10166 -50.01527,35.24788 -78.63689,56.3145 -13.92643,10.25038 -25.49603,18.62663 -25.71023,18.6139 -0.21418,-0.0121 -1.28436,-0.59066 -2.37815,-1.28426 z M 109.26168,457.40305 c -7.6407,-4.65188 -15.977619,-9.61731 -18.526489,-11.03428 l -4.634284,-2.5763 v -77.25153 -77.25152 l 80.533513,0.42859 80.5335,0.4286 8.58988,4.21826 c 12.71935,6.24615 15.42618,12.55102 16.12476,37.55853 1.02358,36.64155 -3.81959,45.52499 -27.44743,50.34465 -15.60589,3.18332 -15.53079,3.36232 14.13047,33.67622 l 26.37108,26.95134 -22.6653,0.43351 c -12.46591,0.23843 -24.02642,0.0971 -25.69002,-0.3141 -1.66361,-0.4112 -14.81805,-13.36687 -29.23209,-28.79039 l -26.20735,-28.04276 h -26.16219 c -22.47749,0 -26.45454,0.35182 -28.23785,2.49804 -1.58658,1.90946 -2.25381,11.29633 -2.83182,39.8396 l -0.75618,37.34154 z m 8.86375,-94.96219 10.0952,-6.50632 h 49.15715 c 42.67182,0 49.47068,-0.31354 51.53372,-2.37657 3.18569,-3.18568 3.43407,-28.13511 0.30595,-30.73123 -1.47559,-1.22462 -16.36117,-1.6038 -51.79855,-1.31944 l -49.72792,0.399 -0.43093,13.69335 -0.43092,13.69335 -11.28992,9.61126 c -6.20945,5.28619 -11.28991,10.22353 -11.28991,10.97185 0,1.52082 -0.11917,1.5847 13.87613,-7.43525 z m 502.33106,80.5806 c -9.8934,-3.14729 -16.16929,-7.74246 -20.20865,-14.7967 l -3.72331,-6.50228 -0.43809,-66.16603 -0.43808,-66.16602 h 18.96457 18.96457 v 60.30947 c 0,54.22632 0.25198,60.51882 2.49819,62.38511 1.95895,1.62761 11.7972,2.17179 45.57985,2.52113 42.71279,0.44169 43.11227,0.41677 46.65373,-2.91026 l 3.57204,-3.35577 v -59.47483 -59.47485 h 18.209 18.20898 l -0.43868,65.45364 -0.43869,65.45365 -3.8038,7.51802 c -3.19074,6.30637 -5.26256,8.24926 -12.85511,12.05513 l -9.05132,4.5371 -57.46992,0.31128 c -44.31395,0.24001 -58.91563,-0.14867 -63.78528,-1.69779 z M 309.93112,366.52111 v -77.13068 h 18.71553 18.71554 l 0.94522,4.72614 c 1.2434,6.21693 1.20639,120.99339 -0.0442,137.0582 l -0.97128,12.47702 H 328.6115 309.93108 Z m 143.6748,18.38279 c 0,-54.99331 -0.17675,-58.90786 -2.76573,-61.25083 -2.39847,-2.17059 -7.21811,-2.50295 -36.29679,-2.50295 h -33.53106 v -15.87985 -15.87984 h 93.01052 93.01053 v 15.87984 15.87985 h -35.23814 c -25.39095,0 -35.74529,0.50716 -37.05297,1.81484 -1.34997,1.34997 -1.81484,17.03933 -1.81484,61.25083 v 59.436 h -19.66076 -19.66076 z m 552.01368,-18.38279 v -77.13068 h 18.9046 18.9046 l -0.019,57.09182 -0.019,57.09183 -5.387,3.49045 c -4.4023,2.8524 -5.0562,3.88911 -3.5771,5.67138 1.5245,1.83687 11.9206,2.18092 65.9004,2.18092 h 64.0905 v 14.36748 14.36748 h -79.3988 -79.3992 z"
       id="path1" />
  </g>
</svg>
